<svg width="15px" height="15px" viewBox="0 0 15 15" version="1.1" xmlns:xlink="http://www.w3.org/1999/xlink"
     xmlns="http://www.w3.org/2000/svg" onclick="sendCookieRequestAndRemoveElement()">
    <defs>
        <path d="M15 0L15 0L15 15L0 15L0 0L15 0Z" id="legacy-path-1"/>
        <clipPath id="legacy-clip-1">
            <use xlink:href="#legacy-path-1" clip-rule="evenodd" fill-rule="evenodd"/>
        </clipPath>
    </defs>
    <g id="cookie-legacy-close">
        <path d="M15 0L15 0L15 15L0 15L0 0L15 0Z" id="cookie-legacy-close" fill="none" stroke="none"/>
        <path
                d="M3.50001 2.00006C3.37207 2.00006 3.24399 2.04879 3.14649 2.14654L2.14649 3.14654C1.95099 3.34204 1.95099 3.65858 2.14649 3.85358L5.79298 7.50006L2.14649 11.1465C1.95099 11.342 1.95099 11.6586 2.14649 11.8536L3.14649 12.8536C3.34199 13.0491 3.65852 13.0491 3.85352 12.8536L7.50001 9.20709L11.1465 12.8536C11.3415 13.0491 11.6585 13.0491 11.8535 12.8536L12.8535 11.8536C13.049 11.6581 13.049 11.3415 12.8535 11.1465L9.20704 7.50006L12.8535 3.85358C13.049 3.65858 13.049 3.34154 12.8535 3.14654L11.8535 2.14654C11.658 1.95104 11.3415 1.95104 11.1465 2.14654L7.50001 5.79303L3.85352 2.14654C3.75577 2.04879 3.62795 2.00006 3.50001 2.00006L3.50001 2.00006Z"
                id="Shape" fill="#FFFFFF" fill-opacity="0.72156864" stroke="none" clip-path="url(#legacy-clip-1)"/>
        <path
                d="M3.50001 2.00006C3.37207 2.00006 3.24399 2.04879 3.14649 2.14654L2.14649 3.14654C1.95099 3.34204 1.95099 3.65858 2.14649 3.85358L5.79298 7.50006L2.14649 11.1465C1.95099 11.342 1.95099 11.6586 2.14649 11.8536L3.14649 12.8536C3.34199 13.0491 3.65852 13.0491 3.85352 12.8536L7.50001 9.20709L11.1465 12.8536C11.3415 13.0491 11.6585 13.0491 11.8535 12.8536L12.8535 11.8536C13.049 11.6581 13.049 11.3415 12.8535 11.1465L9.20704 7.50006L12.8535 3.85358C13.049 3.65858 13.049 3.34154 12.8535 3.14654L11.8535 2.14654C11.658 1.95104 11.3415 1.95104 11.1465 2.14654L7.50001 5.79303L3.85352 2.14654C3.75577 2.04879 3.62795 2.00006 3.50001 2.00006L3.50001 2.00006Z"
                id="Shape" fill="#FFFFFF" fill-opacity="0.72156864" stroke="none" clip-path="url(#legacy-clip-1)"/>
    </g>
</svg>